<?xml version="1.0" encoding="UTF-8"?>
<!DOCTYPE svg PUBLIC "-//W3C//DTD SVG 1.1//EN" "http://www.w3.org/Graphics/SVG/1.1/DTD/svg11.dtd">
<!-- Creator: CorelDRAW 2020 (64-Bit) -->
<svg xmlns="http://www.w3.org/2000/svg" xml:space="preserve" width="221px" height="221px" version="1.1" style="shape-rendering:geometricPrecision; text-rendering:geometricPrecision; image-rendering:optimizeQuality; fill-rule:evenodd; clip-rule:evenodd"
viewBox="0 0 2364 2364"
 xmlns:xlink="http://www.w3.org/1999/xlink"
 xmlns:xodm="http://www.corel.com/coreldraw/odm/2003">
 <defs>
  <style type="text/css">
   <![CDATA[
    .fil0 {fill:#FEFEFE;fill-rule:nonzero}
   ]]>
  </style>
 </defs>
 <g id="Слой_x0020_1">
  <metadata id="CorelCorpID_0Corel-Layer"/>
  <path class="fil0" d="M1182 0c-652,0 -1182,530 -1182,1182 0,652 530,1182 1182,1182 652,0 1182,-530 1182,-1182 0,-652 -530,-1182 -1182,-1182zm0 169c561,0 1013,452 1013,1013 0,561 -452,1013 -1013,1013 -561,0 -1013,-452 -1013,-1013 0,-561 452,-1013 1013,-1013zm-299 478c-65,2 -121,54 -123,129l0 811c2,100 101,160 189,113l703 -407c39,-22 65,-63 65,-111 0,-48 -26,-89 -65,-111l-703 -407c-22,-12 -44,-17 -66,-17l0 0z" display="inline"/>
 </g>
</svg>
